<?xml version="1.0" standalone="no"?>
<!DOCTYPE svg PUBLIC "-//W3C//DTD SVG 20010904//EN"
 "http://www.w3.org/TR/2001/REC-SVG-20010904/DTD/svg10.dtd">
<svg version="1.0" xmlns="http://www.w3.org/2000/svg"
 width="120.000000pt" height="120.000000pt" viewBox="0 0 120.000000 120.000000"
 preserveAspectRatio="xMidYMid meet">
<metadata>
Created by potrace 1.11, written by Peter Selinger 2001-2013
</metadata>
<g transform="translate(0.000000,120.000000) scale(0.100000,-0.100000)"
fill="#000000" stroke="none">
<path d="M230 995 c0 -113 4 -205 8 -205 4 0 22 15 40 33 28 29 31 38 34 107
l3 74 37 1 c44 2 54 -4 53 -27 0 -10 3 -19 7 -20 3 -2 43 31 88 72 45 41 85
75 89 75 7 0 172 -151 297 -271 48 -46 71 -59 71 -38 0 7 -5 10 -10 7 -6 -4
-7 -1 -2 7 13 20 14 71 2 63 -5 -3 -7 -1 -4 4 12 19 17 84 7 78 -6 -4 -10 -1
-10 4 0 6 3 11 8 11 4 0 8 11 8 25 1 14 -2 22 -7 19 -5 -3 -9 0 -9 5 0 6 3 11
8 11 4 0 8 11 8 25 1 14 -2 22 -7 19 -5 -3 -9 0 -9 5 0 6 3 11 8 11 4 0 8 11
8 25 1 14 -2 22 -7 19 -5 -3 -9 0 -9 5 0 6 4 11 8 11 5 0 8 10 7 23 l-2 22
-361 3 -362 2 0 -205z"/>
<path d="M562 1005 c-11 -14 -22 -25 -25 -25 -3 0 -45 -39 -95 -87 -49 -49
-108 -105 -130 -126 -21 -21 -48 -40 -58 -41 -18 -3 -19 -19 -22 -351 -1 -209
1 -351 7 -354 8 -5 693 -7 711 -2 3 0 5 14 6 31 1 16 -3 27 -7 24 -5 -3 -9 -1
-9 5 0 5 5 11 12 13 8 3 4 12 -10 26 -19 19 -22 20 -22 5 0 -14 -2 -15 -9 -5
-12 19 -15 19 -32 2 -13 -13 -57 -15 -278 -14 -174 0 -265 4 -269 11 -4 6 -17
13 -30 17 -12 4 -20 12 -17 17 4 5 1 9 -5 9 -7 0 -10 7 -6 15 3 8 0 15 -6 15
-7 0 -3 7 8 16 10 8 12 12 4 8 -10 -5 -9 0 4 14 11 12 25 22 33 22 7 0 13 6
13 14 0 18 8 23 46 31 61 13 128 14 143 2 8 -7 12 -7 8 -1 -13 22 41 31 183
32 97 0 153 -4 170 -13 14 -7 32 -10 40 -8 46 14 45 13 30 23 -11 7 -11 10 -2
10 10 0 10 5 1 21 -8 16 -8 20 1 14 14 -9 10 27 -5 37 -6 5 -5 8 3 8 10 0 10
5 1 21 -8 16 -8 20 1 14 14 -9 10 27 -5 37 -6 5 -5 8 3 8 10 0 10 5 1 21 -6
12 -7 19 -2 16 4 -3 8 19 8 48 0 29 -3 51 -7 48 -5 -2 -8 1 -8 6 0 6 3 11 8
11 4 0 8 11 8 25 1 14 -2 22 -7 19 -5 -3 -9 0 -9 5 0 6 5 11 10 11 6 0 10 5
10 11 0 6 -6 9 -12 6 -7 -2 -20 -1 -29 2 -17 6 -224 194 -263 239 -12 13 -33
33 -48 43 -26 19 -26 19 -46 -6z m174 -139 l140 -135 -1 -163 0 -163 -108 -3
c-99 -2 -108 -1 -107 15 1 10 2 64 1 121 l-1 102 -69 0 c-83 0 -81 3 -77 -125
1 -49 0 -96 -2 -102 -3 -9 -34 -13 -108 -13 l-104 0 0 166 0 166 54 52 c30 28
93 88 140 134 48 45 90 82 95 82 4 0 71 -60 147 -134z"/>
<path d="M951 754 c0 -11 3 -14 6 -6 3 7 2 16 -1 19 -3 4 -6 -2 -5 -13z"/>
<path d="M533 225 c0 -8 4 -12 9 -9 5 3 6 10 3 15 -9 13 -12 11 -12 -6z"/>
</g>
</svg>
